<svg width="241" height="65" viewBox="0 0 241 65" fill="none" xmlns="http://www.w3.org/2000/svg">
<g clip-path="url(#clip0_608_1922)">
<path d="M70.9282 25.8257C70.7732 26.2567 70.4633 26.4164 69.9769 26.4164C69.4904 26.4164 69.1805 26.2567 69.0256 25.8257L67.7175 22.2667C67.6923 22.1924 67.6454 22.1069 67.5986 22.1069C67.5265 22.1069 67.5265 22.1701 67.5265 22.2407L67.6094 26.3421H65.75V20.8549C65.75 20.0933 66.4166 19.7627 67.1301 19.7627C67.8436 19.7627 68.2364 19.9707 68.4778 20.6209L69.7751 24.0945C69.8219 24.2171 69.9048 24.3657 69.9769 24.3657C70.0489 24.3657 70.1318 24.2171 70.1787 24.0945L71.4651 20.6209C71.7029 19.9707 72.1209 19.7627 72.8236 19.7627C73.5263 19.7627 74.2037 20.0933 74.2037 20.8549V26.3421H72.3443L72.4272 22.2295C72.4272 22.1181 72.3804 22.0958 72.3443 22.0958C72.3083 22.0958 72.2507 22.1812 72.2254 22.2555L70.9282 25.8295V25.8257Z" fill="#ACC65B"/>
<path d="M80.7118 26.3421C78.6867 26.3421 78.3047 25.4579 78.3047 23.0654C78.3047 20.3014 79.0182 19.7627 81.519 19.7627C83.6018 19.7627 84.7333 20.1045 84.7333 22.3781C84.7333 23.1137 84.5207 23.7304 83.7459 23.7304H80.1857C80.1857 24.5292 80.4343 24.9713 81.4469 24.9713H84.5207V26.3458H80.7082L80.7118 26.3421ZM82.4991 22.4004C82.8306 22.4004 82.8451 22.1664 82.8451 22.0066C82.8451 21.3453 82.1172 21.1336 81.5226 21.1336C80.6289 21.1336 80.1893 21.4419 80.1893 22.3967H82.4991V22.4004Z" fill="#ACC65B"/>
<path d="M92.122 19.0974C91.2896 19.0974 90.6914 19.3166 90.6914 20.2379H92.7274C94.6697 20.2379 95.3003 21.1333 95.3003 23.2843C95.3003 25.74 94.5363 26.4162 92.0355 26.4162C89.7725 26.4162 88.832 25.9481 88.832 23.7524V20.3011C88.832 18.4956 89.8915 17.7451 91.1779 17.7451H94.9543V19.0974H92.1184H92.122ZM90.6914 23.7636C90.6914 24.6849 91.1923 25.0044 92.0247 25.0044C93.1562 25.0044 93.394 24.3914 93.394 23.2843C93.394 22.363 93.2283 21.5902 92.2157 21.5902H90.6914V23.7636Z" fill="#ACC65B"/>
<path d="M101.63 26.3421C99.6046 26.3421 99.2227 25.4579 99.2227 23.0654C99.2227 20.3014 99.9361 19.7627 102.437 19.7627C104.52 19.7627 105.651 20.1045 105.651 22.3781C105.651 23.1137 105.439 23.7304 104.664 23.7304H101.104C101.104 24.5292 101.352 24.9713 102.365 24.9713H105.439V26.3458H101.626L101.63 26.3421ZM103.417 22.4004C103.749 22.4004 103.763 22.1664 103.763 22.0066C103.763 21.3453 103.035 21.1336 102.441 21.1336C101.547 21.1336 101.107 21.4419 101.107 22.3967H103.417V22.4004Z" fill="#ACC65B"/>
<path d="M113.054 21.895C113.007 21.7835 112.992 21.6869 112.924 21.6869C112.83 21.6869 112.816 21.7724 112.769 21.895L111.018 26.3382H109.09L111.756 20.3235C111.958 19.8554 112.484 19.7588 112.924 19.7588C113.364 19.7588 113.864 19.8702 114.066 20.3235L116.758 26.3382H114.83L113.057 21.895H113.054Z" fill="#ACC65B"/>
<path d="M121.52 26.3419C120.792 26.3419 120.363 25.9258 120.363 25.1493V19.833H122.223V22.1029H125.023C126.356 22.1029 126.666 22.924 126.666 24.2131C126.666 25.5022 126.356 26.3381 125.023 26.3381H121.52V26.3419ZM122.223 24.4992C122.223 24.8075 122.342 24.9301 122.641 24.9301H124.082C124.619 24.9301 124.76 24.7109 124.76 24.2168C124.76 23.7227 124.615 23.5184 124.082 23.5184H122.223V24.4992Z" fill="#ACC65B"/>
<path d="M135.126 26.3419V23.6893H132.578V26.3419H130.719V19.833H132.578V22.2775H135.126V19.833H136.985V26.3419H135.126Z" fill="#ACC65B"/>
<path d="M145.417 19.8328C146.667 19.8328 147.37 20.6687 147.37 21.8947V25.112C147.37 25.9107 146.952 26.338 146.181 26.338H142.642C141.511 26.338 141.082 25.6507 141.082 24.2984C141.082 23.0724 141.511 22.2736 142.642 22.2736H145.514V21.9913C145.514 21.4749 145.23 21.2037 144.718 21.2037H141.525V19.8291H145.421L145.417 19.8328ZM143.525 23.6036C143.168 23.6036 142.967 23.86 142.967 24.3169C142.967 24.733 143.132 25.0154 143.514 25.0154H145.1C145.399 25.0154 145.518 24.8928 145.518 24.5844V23.6036H143.529H143.525Z" fill="#ACC65B"/>
<path d="M153.243 24.1054C153.289 24.0571 153.315 24.0088 153.315 23.9716C153.315 23.8973 153.232 23.8973 153.185 23.8973H152.983C151.913 23.8973 151.552 22.9277 151.552 21.8206C151.552 20.7135 151.97 19.833 153.102 19.833H156.677C157.451 19.833 157.869 20.264 157.869 21.059V26.3381H156.01V21.6608C156.01 21.3525 155.866 21.2076 155.57 21.2076H154.046C153.617 21.2076 153.437 21.4045 153.437 21.906C153.437 22.4076 153.617 22.6193 154.046 22.6193H154.76C155.069 22.6193 155.437 22.7308 155.437 23.2323C155.437 23.6484 155.271 23.9308 155.138 24.1165L153.484 26.3381H151.387L153.246 24.1017L153.243 24.1054Z" fill="#ACC65B"/>
<path d="M173.777 17.7451V19.833H175.208C177.222 19.833 177.687 21.2336 177.687 23.0763C177.687 24.919 177.222 26.3419 175.208 26.3419H173.777V28.4297H171.918V26.3419H170.487C168.462 26.3419 168.012 24.919 168.012 23.0763C168.012 21.2336 168.466 19.833 170.487 19.833H171.918V17.7451H173.777ZM171.918 21.2447H171.442C170.131 21.2447 169.893 21.8466 169.893 23.0726C169.893 24.2986 170.131 24.9264 171.442 24.9264H171.918V21.241V21.2447ZM174.253 24.9301C175.565 24.9301 175.802 24.3023 175.802 23.0763C175.802 21.8503 175.565 21.2485 174.253 21.2485H173.777V24.9338H174.253V24.9301Z" fill="#ACC65B"/>
<path d="M185.944 19.8328C187.195 19.8328 187.897 20.6687 187.897 21.8947V25.112C187.897 25.9107 187.479 26.338 186.708 26.338H183.17C182.038 26.338 181.609 25.6507 181.609 24.2984C181.609 23.0724 182.038 22.2736 183.17 22.2736H186.042V21.9913C186.042 21.4749 185.757 21.2037 185.245 21.2037H182.053V19.8291H185.948L185.944 19.8328ZM184.053 23.6036C183.696 23.6036 183.494 23.86 183.494 24.3169C183.494 24.733 183.66 25.0154 184.042 25.0154H185.627C185.926 25.0154 186.045 24.8928 186.045 24.5844V23.6036H184.056H184.053Z" fill="#ACC65B"/>
<path d="M195.462 19.0974C194.629 19.0974 194.031 19.3166 194.031 20.2379H196.067C198.009 20.2379 198.64 21.1333 198.64 23.2843C198.64 25.74 197.876 26.4162 195.375 26.4162C193.112 26.4162 192.172 25.9481 192.172 23.7524V20.3011C192.172 18.4956 193.231 17.7451 194.518 17.7451H198.294V19.0974H195.458H195.462ZM194.031 23.7636C194.031 24.6849 194.532 25.0044 195.365 25.0044C196.496 25.0044 196.734 24.3914 196.734 23.2843C196.734 22.363 196.568 21.5902 195.556 21.5902H194.031V23.7636Z" fill="#ACC65B"/>
<path d="M206.407 19.833C208.432 19.833 209.016 21.1221 209.016 23.0874C209.016 25.0527 208.432 26.3419 206.407 26.3419H204.598V28.4297H202.738V21.0627C202.738 20.264 203.156 19.8367 203.931 19.8367H206.407V19.833ZM204.598 24.9301H205.909C206.994 24.9301 207.113 24.0088 207.113 23.0874C207.113 22.0806 206.994 21.2447 205.888 21.2447H205.077C204.731 21.2447 204.601 21.3673 204.601 21.7128V24.9301H204.598Z" fill="#ACC65B"/>
<path d="M217.974 26.3418L218.057 22.3406C218.057 22.2291 218.046 22.1548 217.974 22.1548C217.913 22.1548 217.881 22.218 217.783 22.3406L215.283 25.8774C214.973 26.3083 214.735 26.4161 214.234 26.4161C213.578 26.4161 213.113 26.0854 213.113 25.3461V19.8329H214.973L214.89 23.8341C214.89 23.9455 214.89 24.0198 214.983 24.0198C215.077 24.0198 215.128 23.9084 215.174 23.8341L217.722 20.223C217.935 19.9146 218.198 19.7549 218.699 19.7549C219.463 19.7549 219.83 20.2564 219.83 20.9103V26.338H217.971L217.974 26.3418Z" fill="#ACC65B"/>
<path d="M224.109 26.3419V19.833H225.969V26.3419H224.109ZM228.635 26.3419L226.563 23.7376C226.408 23.5518 226.232 23.2955 226.232 23.002C226.232 22.7085 226.423 22.4261 226.635 22.1438L228.423 19.8367H230.531L228.398 22.389C228.217 22.597 228.077 22.8199 228.077 22.9908C228.077 23.1617 228.207 23.3698 228.325 23.5072L230.779 26.3419H228.635Z" fill="#ACC65B"/>
<path d="M238.546 19.8328C239.796 19.8328 240.499 20.6687 240.499 21.8947V25.112C240.499 25.9107 240.081 26.338 239.31 26.338H235.771C234.64 26.338 234.211 25.6507 234.211 24.2984C234.211 23.0724 234.64 22.2736 235.771 22.2736H238.643V21.9913C238.643 21.4749 238.359 21.2037 237.847 21.2037H234.654V19.8291H238.55L238.546 19.8328ZM236.654 23.6036C236.297 23.6036 236.096 23.86 236.096 24.3169C236.096 24.733 236.261 25.0154 236.643 25.0154H238.229C238.528 25.0154 238.647 24.8928 238.647 24.5844V23.6036H236.658H236.654Z" fill="#ACC65B"/>
<path d="M78.5949 50.2042C78.1012 51.4488 77.6832 52.2364 76.4977 52.2364C75.3121 52.2364 74.8689 51.4488 74.3752 50.2042L69.2475 37.0119C69.1502 36.7593 68.9772 36.4509 68.8043 36.4509C68.6061 36.4509 68.4835 36.7036 68.4835 36.9599L68.534 52.0358H66.2422V36.046C66.2422 34.7494 67.0818 34.0361 68.4367 34.0361C69.9177 34.0361 70.433 34.9018 70.9015 36.0683L76.0544 49.2383C76.1769 49.569 76.2778 49.8476 76.4977 49.8476C76.6958 49.8476 76.8184 49.569 76.9409 49.2383L82.0938 36.0683C82.5371 34.898 83.056 34.0361 84.5334 34.0361C85.8883 34.0361 86.7531 34.7494 86.7531 36.046V52.0358H84.4613L84.5118 36.9599C84.5118 36.503 84.2884 36.4509 84.1911 36.4509C84.0181 36.4509 83.8451 36.7556 83.7478 37.0119L78.5949 50.2042Z" fill="white"/>
<path d="M107.073 43.1342C107.073 49.9477 104.828 52.2362 98.4684 52.2362C92.1082 52.2362 89.8633 49.9477 89.8633 43.1342C89.8633 36.3207 92.1551 34.0322 98.4684 34.0322C104.782 34.0322 107.073 36.3207 107.073 43.1342ZM98.4684 50.3044C103.376 50.3044 104.681 48.5248 104.681 43.1342C104.681 37.7436 103.373 35.9641 98.4684 35.9641C93.564 35.9641 92.256 37.7696 92.256 43.1342C92.256 48.4988 93.564 50.3044 98.4684 50.3044Z" fill="white"/>
<path d="M116.883 52.0316C111.114 52.0316 109.684 48.0676 109.684 43.108C109.684 38.1483 111.089 34.2363 117.006 34.2363H123.687V36.1682H117.77C113.453 36.1682 112.073 38.2784 112.073 43.108C112.073 47.9376 113.402 50.0998 117.644 50.0998H123.932V52.0316H116.88H116.883Z" fill="white"/>
<path d="M140.58 49.9739C140.111 51.3225 139.643 52.2364 137.693 52.2364C135.744 52.2364 135.254 51.3225 134.785 49.9739L131.257 39.7537C131.16 39.475 131.034 39.1444 130.886 39.1444C130.641 39.1444 130.641 39.5753 130.641 39.7054L130.764 52.0358H126.324V36.7816C126.324 34.3928 128.519 34.0361 129.827 34.0361C131.553 34.0361 132.886 34.6714 133.574 36.6553L137.199 46.9275C137.297 47.2322 137.495 47.6631 137.693 47.6631C137.891 47.6631 138.09 47.2322 138.187 46.9275L141.812 36.6553C142.504 34.6714 143.833 34.0361 145.534 34.0361C148.37 34.0361 149.059 35.4107 149.059 36.7816V52.0358H144.619L144.767 39.7054C144.767 39.3487 144.644 39.1444 144.497 39.1444C144.374 39.1444 144.251 39.397 144.125 39.7537L140.576 49.9739H140.58Z" fill="white"/>
<path d="M166.64 37.6955H157.764C156.899 37.6955 156.604 38.0001 156.604 38.8917V41.3586H166.416V44.665H156.604V47.3844C156.604 48.2724 156.899 48.5807 157.764 48.5807H166.74V52.0395H154.78C153.177 52.0395 152.168 51.2259 152.168 49.32V36.9896C152.168 35.0838 153.181 34.2441 154.78 34.2441H166.64V37.7029V37.6955Z" fill="white"/>
<path d="M169.348 37.0078C169.348 34.619 170.901 34.2363 171.939 34.2363H184.785V37.7954H174.922C173.91 37.7954 173.787 38.126 173.787 38.9656V41.2802H181.333C184.907 41.2802 185.772 43.238 185.772 46.6708C185.772 50.1035 184.911 52.0354 181.358 52.0354H171.964C170.36 52.0354 169.351 51.2218 169.351 49.3159V37.0115L169.348 37.0078ZM173.787 44.5829V47.3023C173.787 48.1902 174.083 48.4726 174.947 48.4726H178.349C180.396 48.4726 181.236 48.3946 181.236 46.5407C181.236 45.0138 180.619 44.5829 179.016 44.5829H173.787Z" fill="white"/>
<path d="M202.858 37.6955H193.983C193.118 37.6955 192.823 38.0001 192.823 38.8917V41.3586H202.635V44.665H192.823V47.3844C192.823 48.2724 193.118 48.5807 193.983 48.5807H202.959V52.0395H190.999C189.396 52.0395 188.387 51.2259 188.387 49.32V36.9896C188.387 35.0838 189.399 34.2441 190.999 34.2441H202.858V37.7029V37.6955Z" fill="white"/>
<path d="M210.353 35.7897C210.872 34.5191 212.079 34.0361 213.535 34.0361C214.991 34.0361 216.198 34.5191 216.717 35.7897L223.351 52.0358H218.666L213.859 39.0441C213.784 38.8658 213.737 38.5871 213.539 38.5871C213.34 38.5871 213.268 38.8658 213.193 39.0441L208.407 52.0358H203.723L210.357 35.7897H210.353Z" fill="white"/>
<path d="M229.041 34.2363V40.8715H236.562C240.136 40.8715 241.001 43.0337 241.001 46.4627C241.001 49.8917 240.136 52.0316 236.587 52.0316H227.218C225.614 52.0316 224.605 51.218 224.605 49.3122V34.2363H229.045H229.041ZM229.041 44.4306V47.2763C229.041 48.1679 229.337 48.4726 230.202 48.4726H234.245C235.798 48.4726 236.464 47.9896 236.464 46.4627C236.464 44.9358 235.848 44.4306 234.245 44.4306H229.041Z" fill="white"/>
<path d="M54.4324 64.5738H52.728V11.9457H19.0248V54.8365H17.3203V10.1885H54.4324V64.5738Z" fill="white"/>
<path d="M12.1691 13.0049L11.5782 11.3591C12.1475 11.14 15.0447 9.8954 16.1185 6.68927C16.6555 5.08435 16.5365 3.59831 16.3167 2.58409C15.1564 2.89616 13.3367 3.65775 11.9241 5.52273C10.335 7.61433 10.1728 9.91026 10.2161 11.0917L8.51522 11.1622C8.46117 9.73937 8.65936 6.97533 10.5836 4.44164C12.7277 1.61445 15.6393 0.875142 16.7888 0.689387L17.5023 0.574219L17.7293 1.28009C18.0968 2.41691 18.5833 4.70541 17.7293 7.2614C16.4068 11.2143 12.8682 12.7374 12.1691 13.0049Z" fill="#ACC65B"/>
<path d="M19.0248 59.0273H17.3203V64.574H19.0248V59.0273Z" fill="white"/>
<path d="M32.0148 33.8506H28.7969V35.6078H32.0148V33.8506Z" fill="white"/>
<path d="M50.0739 59.9048H12.9618V29.8013C12.9618 28.7016 12.987 27.5314 13.0447 26.0119C13.1204 24.0058 12.8465 20.1123 10.1439 16.557C7.51336 13.0945 4.06124 11.8685 2.1514 11.4376C1.70457 13.1577 1.34062 15.9403 2.3604 18.9904C4.19097 24.4553 9.12411 26.5803 10.0934 26.9518L9.50248 28.5976C8.40702 28.1778 2.83246 25.7741 0.749653 19.5625C-0.598044 15.5428 0.169494 11.9428 0.749653 10.1522L0.976671 9.44629L1.69016 9.56146C3.50631 9.85495 8.09713 11.0178 11.488 15.4759C14.5257 19.4733 14.8392 23.8349 14.7527 26.0825C14.6951 27.5797 14.6699 28.7277 14.6699 29.805V58.1512H33.7718V14.3799H50.0811V59.9048H50.0739Z" fill="#ACC65B"/>
<path d="M40.7179 33.8506H37.5V35.6078H40.7179V33.8506Z" fill="white"/>
</g>
<defs>
<clipPath id="clip0_608_1922">
<rect width="241" height="64" fill="white" transform="translate(0 0.574219)"/>
</clipPath>
</defs>
</svg>
