<svg width="34" height="27" viewBox="0 0 34 27" fill="none" xmlns="http://www.w3.org/2000/svg">
<path d="M1.12266 11.1941C1.19892 11.1597 1.27514 11.1271 1.34938 11.0964C2.64012 10.5599 3.94618 10.0615 5.25037 9.56296C5.31953 9.56572 5.4386 9.48995 5.50507 9.46639C5.60585 9.42734 5.70657 9.39016 5.80736 9.35111C6.0013 9.27646 6.19517 9.20367 6.38724 9.12894C6.77504 8.9815 7.16095 8.83398 7.54876 8.68653L9.87004 7.7998C11.4175 7.20988 12.967 6.61817 14.5145 6.02825C16.0619 5.43834 17.6113 4.84663 19.1588 4.25671C20.7063 3.6668 22.2557 3.0751 23.8032 2.48518C25.3507 1.89527 26.9001 1.30356 28.4476 0.713641C28.7917 0.581311 29.1667 0.379045 29.5319 0.329952C29.8387 0.287894 30.1401 0.19506 30.4489 0.149337C31.0347 0.0622331 31.6776 0.0429611 32.2249 0.306393C32.4141 0.398217 32.587 0.523097 32.7288 0.6767C33.4074 1.40418 33.2625 2.54822 33.0737 3.52572C31.7589 10.3385 30.444 17.1532 29.1274 23.9659C28.9478 24.9007 28.7122 25.9251 27.9464 26.49C27.2983 26.9679 26.4025 26.9883 25.6354 26.7442C24.8682 26.4982 24.2021 26.0203 23.5488 25.5504C20.8392 23.5957 18.1278 21.641 15.4182 19.6863C14.774 19.2224 14.0604 18.6209 14.0996 17.8265C14.1224 17.348 14.4254 16.9332 14.7321 16.5652C17.2769 13.5057 20.8532 11.4762 23.5696 8.5696C23.9529 8.1598 24.2714 7.40471 23.7784 7.13971C23.4851 6.98193 23.1333 7.16638 22.8528 7.34433C19.3259 9.5912 15.8007 11.84 12.2738 14.0869C11.1231 14.82 9.9173 15.5734 8.56014 15.7102C7.3458 15.834 6.14428 15.4489 4.98979 15.0583C4.02185 14.7312 3.05603 14.3968 2.09437 14.0531C1.58303 13.8717 1.05539 13.6765 0.669942 13.2959C0.284497 12.9153 0.0791054 12.2929 0.339636 11.8164C0.503206 11.5177 0.804359 11.3368 1.11904 11.1921L1.12266 11.1941Z" fill="#137FFA"/>
</svg>
