<svg width="233" height="197" viewBox="0 0 233 197" fill="none" xmlns="http://www.w3.org/2000/svg">
<path d="M215.942 5.12442L202.398 10.2488H102.086H1.81083L0.905416 11.1978C-0.301805 12.3745 -0.301805 13.4374 0.905416 14.6141L1.81083 15.563H16.3729H30.8973V92.0498V168.537H16.2598C-0.0754505 168.537 0.188629 168.499 0.188629 171.004C0.188629 173.699 -8.79008 173.471 101.595 173.471H201.606L215.376 184.669C222.959 190.856 229.523 195.981 230.013 196.132C231.9 196.588 233.748 194.045 232.692 192.413C232.39 191.995 226.128 186.757 218.771 180.759L205.378 169.865V92.2396V14.6141L218.733 9.64149C226.052 6.87051 232.239 4.44115 232.465 4.21339C232.692 3.98564 232.88 3.18852 232.88 2.42934C232.88 0.873032 232.013 -1.52588e-05 230.504 -1.52588e-05C229.976 0.0379486 223.411 2.31548 215.942 5.12442ZM200.286 17.0814V18.5997H121.062H41.8L40.8946 19.5487L39.9515 20.4597V91.9359C39.9515 156.048 40.0269 163.526 40.5551 164.285L41.121 165.12H120.722H200.286V166.828V168.537H118.006C43.1204 168.537 35.7262 168.499 35.9525 167.929C36.0657 167.588 36.1789 133.197 36.1789 91.4424V15.563H118.232H200.286V17.0814ZM93.1446 92.0498V160.186H69.1889H45.2331V92.0498V23.914H69.1889H93.1446V92.0498ZM146.338 92.0498V160.186H122.382H98.4262V92.0498V23.914H122.382H146.338V92.0498Z" fill="#F5F4EB"/>
<path d="M52.6631 88.5576C50.6637 90.1898 50.6259 93.4163 52.6254 95.3142C53.3799 95.9975 54.0212 96.2252 55.4171 96.2252C57.492 96.2252 58.5861 95.466 59.4537 93.4542C60.1328 91.822 59.5669 89.5445 58.1711 88.4817C56.8129 87.3808 54.059 87.4188 52.6631 88.5576Z" fill="#F5F4EB"/>
<path d="M133.625 34.2387C132.191 35.833 116.912 57.2796 116.573 58.1527C115.818 60.1645 117.516 61.9106 119.666 61.3412C120.949 61.0375 138.039 37.2375 138.039 35.7571C138.039 33.5175 135.172 32.5685 133.625 34.2387Z" fill="#F5F4EB"/>
<path d="M132.607 49.4222C131.211 50.7507 103.747 89.1649 103.483 90.1898C103.106 91.7081 104.237 92.9987 105.935 92.9987H107.406L121.289 73.7157C137.587 51.1303 136.908 52.0793 136.908 51.1683C136.908 50.2193 135.248 48.5871 134.305 48.5871C133.89 48.5871 133.135 48.9667 132.607 49.4222Z" fill="#F5F4EB"/>
<path d="M130.381 113.193C129.588 113.952 124.043 121.582 109.782 141.51C107.972 144.053 106.727 146.217 106.727 146.748C106.727 148.001 108.009 149.178 109.33 149.178C110.763 149.178 110.424 149.557 123.854 130.882C131.361 120.405 134.644 115.546 134.644 114.863C134.644 113.61 133.436 112.358 132.229 112.358C131.701 112.358 130.871 112.737 130.381 113.193Z" fill="#F5F4EB"/>
<path d="M187.722 88.5576C185.722 90.1898 185.685 93.4163 187.684 95.3142C188.439 96.0354 189.08 96.2252 190.476 96.2252C191.872 96.2252 192.513 96.0354 193.267 95.3142C195.229 93.4542 195.229 90.038 193.23 88.4437C191.872 87.3808 189.118 87.4188 187.722 88.5576Z" fill="#F5F4EB"/>
</svg>
