<svg width="100" height="100" viewBox="0 0 100 100" fill="none" xmlns="http://www.w3.org/2000/svg">
<circle cx="50" cy="50" r="50" fill="white"/>
<ellipse cx="11.834" cy="9.29462" rx="11.834" ry="9.29462" transform="matrix(0.836791 -0.547523 0.557691 0.830049 14.668 47.4104)" fill="#120F24"/>
<path d="M34.9293 45.2602C36.3332 47.3497 35.3611 50.6531 32.4036 52.5883C29.446 54.5234 25.9842 54.1212 24.5804 52.0317C23.1765 49.9422 24.1485 46.6388 27.1061 44.7037C30.0636 42.7685 33.5254 43.1708 34.9293 45.2602Z" stroke="white"/>
<path fill-rule="evenodd" clip-rule="evenodd" d="M36.2374 56.6678C29.0459 61.9133 23.7305 58.6502 23.7305 58.6502L28.5579 64.2183C31.8872 68.5706 38.1615 69.4354 42.5718 66.1499L43.5694 65.4067C43.5684 65.4053 43.5673 65.404 43.5663 65.4026L40.9316 61.9585L41.9298 61.2148L44.5676 64.6631L46.0656 63.5471C46.0647 63.5459 46.0638 63.5448 46.0629 63.5436L41.9212 58.1293L42.9194 57.3857L47.0638 62.8035L48.5595 61.6892C48.5583 61.6877 48.5571 61.6861 48.5559 61.6845L45.9212 58.2403L46.9194 57.4967L49.5577 60.9456L51.0558 59.8296C51.0547 59.8282 51.0536 59.8268 51.0525 59.8254L46.9108 54.4111L47.909 53.6675L52.054 59.086L53.5513 57.9706C53.5502 57.9691 53.5491 57.9677 53.5481 57.9663L50.9134 54.5222L51.9116 53.7786L54.5495 57.2269L56.0475 56.111C56.0466 56.1097 56.0457 56.1085 56.0447 56.1073L51.903 50.693L52.9012 49.9494L57.0457 55.3673L58.5414 54.2531C58.5401 54.2515 58.5389 54.2499 58.5376 54.2483L55.903 50.8042L56.9012 50.0605L59.5395 53.5095L61.0376 52.3935C61.0365 52.3921 61.0354 52.3906 61.0343 52.3892L56.8926 46.9749L57.8908 46.2313L62.0358 51.6499L63.5332 50.5344C63.5321 50.533 63.5309 50.5315 63.5298 50.5301L60.8952 47.0859L61.8934 46.3423L64.5314 49.7908L66.0294 48.6748C66.0284 48.6736 66.0274 48.6723 66.0265 48.6711L61.8848 43.2568L62.883 42.5132L67.0276 47.9312L68.5233 46.817C68.522 46.8153 68.5207 46.8136 68.5194 46.812L65.8848 43.3678L66.883 42.6242L69.5215 46.0734L71.0195 44.9574C71.0184 44.9559 71.0172 44.9544 71.0161 44.9529L66.8744 39.5386L67.8726 38.795L72.0177 44.2137L73.5167 43.0971C73.5158 43.096 73.515 43.095 73.5142 43.0939L70.8796 39.6497L71.8778 38.9061L74.5149 42.3535L76.0096 41.2399C76.0083 41.2382 76.007 41.2365 76.0057 41.2348L71.8639 35.8205L72.8621 35.0769L77.0078 40.4963L78.5068 39.3796C78.5058 39.3783 78.5048 39.377 78.5038 39.3758L75.8691 35.9316L76.8673 35.188L79.505 38.636L81.003 37.52C81.0022 37.5189 81.0013 37.5178 81.0004 37.5167L76.8587 32.1024L77.8569 31.3588L82.0012 36.7764L83.9972 35.2895L76.8386 25.9314C76.8386 25.9314 43.4288 51.4223 36.2374 56.6678Z" fill="#120F24"/>
<path d="M40.3047 52.6566C42.8061 50.4967 44.6821 48.9539 44.6821 48.9539L41.7846 45.5226C41.7846 45.5226 42.1807 48.0282 40.3047 52.6566Z" fill="#120F24"/>
</svg>
