<svg width="100" height="100" viewBox="0 0 100 100" fill="none" xmlns="http://www.w3.org/2000/svg">
<circle cx="50" cy="50" r="50" fill="white"/>
<path fill-rule="evenodd" clip-rule="evenodd" d="M29.6367 42.105C29.6367 37.0183 33.7603 32.8947 38.847 32.8947H55.3215C58.8678 32.8947 61.7427 35.7696 61.7427 39.3159V44.8942C61.7427 48.4405 58.8678 51.3154 55.3215 51.3154H48.3733C48.5051 52.3331 48.8869 53.0437 49.2004 53.6273C49.5766 54.3275 49.8546 54.8449 49.4847 55.4907C48.6759 56.903 47.0581 56.6574 47.0581 56.6574V65.4379H37.2272V51.1734C32.913 50.4079 29.6367 46.6391 29.6367 42.105ZM34.4647 44.7195C34.1354 44.2433 34.2597 43.5939 34.7422 43.2689L41.1151 38.9771C41.5976 38.6522 42.2557 38.7748 42.585 39.2509C42.9143 39.7271 42.79 40.3766 42.3075 40.7015L35.9347 44.9933C35.4521 45.3183 34.794 45.1957 34.4647 44.7195ZM41.3307 42.9941C40.8482 43.319 40.724 43.9685 41.0533 44.4447C41.3826 44.9208 42.0407 45.0434 42.5232 44.7185L48.8961 40.4267C49.3786 40.1017 49.5028 39.4523 49.1735 38.9761C48.8442 38.4999 48.1861 38.3773 47.7036 38.7023L41.3307 42.9941ZM69.5435 43.7015C68.8951 46.8024 66.3958 49.2358 63.2358 49.8269V34.3834C66.4787 34.99 69.0258 37.5368 69.5906 40.7542H79.5564C80.3702 40.7542 81.03 41.414 81.03 42.2279C81.03 43.0417 80.3702 43.7015 79.5564 43.7015H69.5435ZM31.3158 71.701C31.3158 68.7846 33.68 66.4204 36.5963 66.4204H49.0569C51.9733 66.4204 54.3375 68.7846 54.3375 71.701C54.3375 74.6174 51.9733 76.9816 49.0569 76.9816H36.5963C33.68 76.9816 31.3158 74.6174 31.3158 71.701Z" fill="#120F24"/>
</svg>
