<svg width="101" height="100" viewBox="0 0 101 100" fill="none" xmlns="http://www.w3.org/2000/svg">
<circle cx="50.5" cy="50" r="50" fill="white"/>
<path fill-rule="evenodd" clip-rule="evenodd" d="M53.0244 14.3143C53.0244 13.4297 52.2977 12.7126 51.4013 12.7126C50.505 12.7126 49.7783 13.4297 49.7783 14.3143V14.8575C36.9614 15.1876 26.3494 24.2571 23.8359 36.25C25.8278 33.4229 29.1119 31.5769 32.8258 31.5769C36.6721 31.5769 40.0574 33.5568 42.0237 36.5561C43.74 33.9383 46.5371 32.097 49.7783 31.671V48.7503C49.7783 50.5686 48.2846 52.0427 46.4421 52.0427C44.5995 52.0427 43.1058 50.5686 43.1058 48.7503V45.1021C43.1058 44.2175 42.3792 43.5004 41.4828 43.5004C40.5864 43.5004 39.8598 44.2175 39.8598 45.1021V48.7503C39.8598 52.3378 42.8068 55.246 46.4421 55.246C50.0774 55.246 53.0244 52.3378 53.0244 48.7503V31.7243C55.6956 32.166 58.0424 33.5729 59.6969 35.576C61.7147 33.1331 64.7622 31.5769 68.1722 31.5769C71.8916 31.5769 75.1799 33.4283 77.1709 36.2626C74.7805 24.8293 65.0303 16.0501 53.0244 14.962V14.3143Z" fill="#120F24"/>
<path fill-rule="evenodd" clip-rule="evenodd" d="M74.7861 58.4533C75.3416 59.0242 74.888 59.8985 74.0915 59.8985H68.4279C67.3264 59.8985 66.4334 60.775 66.4334 61.8561V68.2883C66.4334 69.3694 67.3264 70.2459 68.4279 70.2459H74.3425C75.1237 70.2459 75.5838 71.0933 75.0623 71.6751C73.2348 73.7136 70.557 75 67.5731 75C63.9755 75 60.8228 73.1301 59.0689 70.3264C58.4427 69.3252 57.4063 68.5679 56.2094 68.5679H38.2911C37.2997 68.5679 36.4113 69.1082 35.7055 69.7915C34.5222 70.9371 32.8972 71.6441 31.1039 71.6441C27.4847 71.6441 24.5508 68.7644 24.5508 65.212C24.5508 61.6597 27.4847 58.7799 31.1039 58.7799C32.8094 58.7799 34.3627 59.4194 35.5285 60.4675C36.221 61.09 37.0716 61.5765 38.0106 61.5765H56.3831C57.5479 61.5765 58.564 60.8577 59.1971 59.8982C60.9738 57.2056 64.0615 55.424 67.5731 55.424C70.41 55.424 72.9703 56.5868 74.7861 58.4533ZM31.104 60.1782L32.2887 61.2515L33.8766 60.9773L34.2822 62.5089L35.769 63.1209L35.2665 64.6246L36.1802 65.9284L34.9293 66.9268L34.9798 68.5085L33.3775 68.6845L32.5488 70.042L31.104 69.3398L29.6591 70.042L28.8304 68.6845L27.2281 68.5085L27.2786 66.9268L26.0277 65.9284L26.9414 64.6246L26.4389 63.1209L27.9258 62.5089L28.3313 60.9773L29.9192 61.2515L31.104 60.1782Z" fill="#120F24"/>
</svg>
