<svg width="100" height="100" viewBox="0 0 100 100" fill="none" xmlns="http://www.w3.org/2000/svg">
<circle cx="50" cy="50" r="50" fill="white"/>
<path fill-rule="evenodd" clip-rule="evenodd" d="M71.2625 28.0379C72.0403 27.2703 73.3013 27.2703 74.0791 28.0379L82.1311 35.9839C82.8441 36.6875 82.8441 37.8283 82.1311 38.5318L-nan -nanL-nan -nanL82.1311 38.5318C81.4181 39.2354 80.2622 39.2354 79.5492 38.5318L74.4965 33.5456V54.1734H70.8451V33.5456L65.7924 38.5318C65.0794 39.2354 63.9235 39.2354 63.2105 38.5318L-nan -nanL-nan -nanL63.2105 38.5318C62.4975 37.8283 62.4975 36.6875 63.2105 35.9839L71.2625 28.0379Z" fill="#120F24" stroke="#120F24"/>
<mask id="path-3-outside-1_608_1426" maskUnits="userSpaceOnUse" x="24.332" y="25.3157" width="51" height="51" fill="black">
<rect fill="white" x="24.332" y="25.3157" width="51" height="51"/>
<path d="M72.9244 52.1911C73.9259 52.2555 74.692 53.1223 74.5506 54.1159C73.873 58.8751 71.7835 63.3459 68.5256 66.9543C64.858 71.0165 59.9201 73.7528 54.4963 74.7285C49.0724 75.7041 43.4737 74.8632 38.5897 72.3393C33.7056 69.8154 29.8162 65.7533 27.5393 60.7982C25.2625 55.8432 24.7289 50.2794 26.0232 44.9908C27.3174 39.7021 30.3654 34.992 34.6829 31.6086C39.0004 28.2252 44.3398 26.3625 49.8528 26.3166C54.7536 26.2758 59.5418 27.6726 63.618 30.3093C64.4603 30.8541 64.6078 32.0025 63.9923 32.7946V32.7946C63.3878 33.5724 62.274 33.7125 61.4413 33.1862C58.0044 31.0138 53.9903 29.8647 49.8834 29.8989C45.1797 29.9381 40.6242 31.5273 36.9405 34.4141C33.2568 37.3008 30.6562 41.3195 29.5519 45.8318C28.4477 50.3441 28.903 55.0911 30.8456 59.3187C32.7881 63.5464 36.1066 67.0122 40.2737 69.1656C44.4408 71.319 49.2176 72.0365 53.8453 71.2041C58.4729 70.3716 62.686 68.037 65.8151 64.5712C68.5358 61.5577 70.3015 57.8393 70.9173 53.8752C71.071 52.8858 71.9252 52.1268 72.9244 52.1911V52.1911Z"/>
</mask>
<path d="M72.9244 52.1911C73.9259 52.2555 74.692 53.1223 74.5506 54.1159C73.873 58.8751 71.7835 63.3459 68.5256 66.9543C64.858 71.0165 59.9201 73.7528 54.4963 74.7285C49.0724 75.7041 43.4737 74.8632 38.5897 72.3393C33.7056 69.8154 29.8162 65.7533 27.5393 60.7982C25.2625 55.8432 24.7289 50.2794 26.0232 44.9908C27.3174 39.7021 30.3654 34.992 34.6829 31.6086C39.0004 28.2252 44.3398 26.3625 49.8528 26.3166C54.7536 26.2758 59.5418 27.6726 63.618 30.3093C64.4603 30.8541 64.6078 32.0025 63.9923 32.7946V32.7946C63.3878 33.5724 62.274 33.7125 61.4413 33.1862C58.0044 31.0138 53.9903 29.8647 49.8834 29.8989C45.1797 29.9381 40.6242 31.5273 36.9405 34.4141C33.2568 37.3008 30.6562 41.3195 29.5519 45.8318C28.4477 50.3441 28.903 55.0911 30.8456 59.3187C32.7881 63.5464 36.1066 67.0122 40.2737 69.1656C44.4408 71.319 49.2176 72.0365 53.8453 71.2041C58.4729 70.3716 62.686 68.037 65.8151 64.5712C68.5358 61.5577 70.3015 57.8393 70.9173 53.8752C71.071 52.8858 71.9252 52.1268 72.9244 52.1911V52.1911Z" fill="#120F24"/>
<path d="M68.5256 66.9543L68.8967 67.2894L68.5256 66.9543ZM54.4963 74.7285L54.4077 74.2364L54.4963 74.7285ZM38.5897 72.3393L38.3601 72.7835L38.5897 72.3393ZM26.0232 44.9908L25.5375 44.8719L26.0232 44.9908ZM34.6829 31.6086L34.9913 32.0021L34.6829 31.6086ZM49.8528 26.3166L49.8486 25.8166L49.8528 26.3166ZM36.9405 34.4141L37.2489 34.8076L36.9405 34.4141ZM29.5519 45.8318L30.0376 45.9506L29.5519 45.8318ZM40.2737 69.1656L40.0442 69.6098L40.2737 69.1656ZM53.8453 71.2041L53.9338 71.6962L53.8453 71.2041ZM65.8151 64.5712L66.1862 64.9062L65.8151 64.5712ZM70.9173 53.8752L71.4114 53.9519L70.9173 53.8752ZM61.4413 33.1862L61.7085 32.7635L61.4413 33.1862ZM63.618 30.3093L63.3464 30.7291L63.618 30.3093ZM74.5506 54.1159L74.0556 54.0454L74.5506 54.1159ZM74.0556 54.0454C73.392 58.7057 71.3458 63.0845 68.1545 66.6193L68.8967 67.2894C72.2211 63.6073 74.3539 59.0445 75.0456 54.1864L74.0556 54.0454ZM68.1545 66.6193C64.5617 70.5987 59.7234 73.2802 54.4077 74.2364L54.5848 75.2206C60.1168 74.2255 65.1544 71.4344 68.8967 67.2894L68.1545 66.6193ZM54.4077 74.2364C49.092 75.1926 43.6052 74.3683 38.8192 71.8951L38.3601 72.7835C43.3423 75.3581 49.0528 76.2157 54.5848 75.2206L54.4077 74.2364ZM38.8192 71.8951C34.0333 69.4219 30.2235 65.4422 27.9937 60.5894L27.085 61.007C29.4088 66.0643 33.3778 70.2088 38.3601 72.7835L38.8192 71.8951ZM27.9937 60.5894C25.7639 55.7368 25.2414 50.2884 26.5088 45.1096L25.5375 44.8719C24.2163 50.2703 24.7612 55.9496 27.085 61.007L27.9937 60.5894ZM26.5088 45.1096C27.7763 39.9307 30.7613 35.317 34.9913 32.0021L34.3745 31.215C29.9695 34.667 26.8586 39.4736 25.5375 44.8719L26.5088 45.1096ZM34.9913 32.0021C39.2215 28.6872 44.4537 26.8616 49.857 26.8166L49.8486 25.8166C44.2258 25.8635 38.7794 27.7632 34.3745 31.215L34.9913 32.0021ZM49.857 26.8166C54.6601 26.7766 59.3524 28.1456 63.3464 30.7291L63.8896 29.8895C59.7311 27.1996 54.8471 25.775 49.8486 25.8166L49.857 26.8166ZM61.7085 32.7635C58.1903 30.5398 54.082 29.3639 49.8793 29.399L49.8876 30.3989C53.8985 30.3655 57.8185 31.4878 61.1742 33.6088L61.7085 32.7635ZM49.8793 29.399C45.0658 29.4391 40.4031 31.0653 36.6321 34.0205L37.2489 34.8076C40.8452 31.9894 45.2937 30.4372 49.8876 30.3989L49.8793 29.399ZM36.6321 34.0205C32.8609 36.9758 30.1974 41.091 29.0663 45.7129L30.0376 45.9506C31.115 41.5481 33.6527 37.6258 37.2489 34.8076L36.6321 34.0205ZM29.0663 45.7129C27.9351 50.335 28.4016 55.1975 30.3912 59.5275L31.2999 59.11C29.4043 54.9847 28.9602 50.3531 30.0376 45.9506L29.0663 45.7129ZM30.3912 59.5275C32.3808 63.8574 35.7788 67.4057 40.0442 69.6098L40.5032 68.7214C36.4343 66.6188 33.1955 63.2354 31.2999 59.11L30.3912 59.5275ZM40.0442 69.6098C44.3094 71.8139 49.198 72.5481 53.9338 71.6962L53.7567 70.712C49.2372 71.5249 44.5723 70.8241 40.5032 68.7214L40.0442 69.6098ZM53.9338 71.6962C58.6696 70.8443 62.9823 68.4549 66.1862 64.9062L65.444 64.2361C62.3896 67.6192 58.2762 69.899 53.7567 70.712L53.9338 71.6962ZM66.1862 64.9062C68.9721 61.8207 70.7806 58.0125 71.4114 53.9519L70.4232 53.7984C69.8224 57.666 68.0996 61.2947 65.444 64.2361L66.1862 64.9062ZM71.4114 53.9519C71.5296 53.1906 72.1784 52.6441 72.8923 52.6901L72.9565 51.6921C71.6721 51.6095 70.6123 52.5811 70.4232 53.7984L71.4114 53.9519ZM63.5975 32.4877C63.1668 33.042 62.3461 33.1666 61.7085 32.7635L61.1742 33.6088C62.2019 34.2584 63.6088 34.1028 64.3871 33.1014L63.5975 32.4877ZM63.3464 30.7291C63.9218 31.1013 64.0487 31.9072 63.5975 32.4877L64.3871 33.1014C65.167 32.0978 64.9987 30.6069 63.8896 29.8895L63.3464 30.7291ZM75.0456 54.1864C75.2317 52.8794 74.223 51.7736 72.9565 51.6921L72.8923 52.6901C73.6288 52.7375 74.1524 53.3652 74.0556 54.0454L75.0456 54.1864Z" fill="#120F24" mask="url(#path-3-outside-1_608_1426)"/>
<path d="M40.7161 38.136L40.7161 38.136L40.7148 38.1367C39.8332 38.6391 39.1623 39.3114 38.7106 40.1535C38.2618 40.9902 38.0391 41.9168 38.0391 42.9284V44.2832C38.0391 45.2724 38.2622 46.1871 38.7106 47.0229L38.7106 47.0229L38.712 47.0254C39.1755 47.8661 39.8515 48.5376 40.7326 49.0397L40.7339 49.0404C41.6359 49.5473 42.7326 49.7939 44.0121 49.7939C45.3137 49.7939 46.412 49.548 47.2923 49.0393C48.1736 48.5369 48.8388 47.8644 49.2787 47.0217C49.7266 46.1862 49.9495 45.2719 49.9495 44.2832V42.9284C49.9495 41.9174 49.727 40.9911 49.2787 40.1548C48.8387 39.3118 48.1733 38.6392 47.2916 38.1367C46.3998 37.6285 45.29 37.3826 43.9765 37.3826C42.7084 37.3826 41.6178 37.6293 40.7161 38.136ZM45.603 45.2706L45.6029 45.2706L45.6001 45.2774C45.4753 45.575 45.2848 45.8134 45.0262 45.9972C44.7826 46.1703 44.4514 46.2677 44.0121 46.2677C43.5868 46.2677 43.2528 46.1711 42.9943 45.9945C42.7229 45.8091 42.5211 45.5691 42.3855 45.2706C42.2463 44.9641 42.1761 44.6359 42.1761 44.2832V42.9284C42.1761 42.5628 42.2467 42.2289 42.3855 41.9234L42.3856 41.9234L42.3868 41.9205C42.5239 41.6084 42.721 41.364 42.9783 41.1806C43.2376 41.0041 43.5655 40.9088 43.9765 40.9088C44.4152 40.9088 44.7546 41.006 45.0121 41.1819C45.2799 41.3648 45.4745 41.6069 45.599 41.9139L45.5988 41.914L45.603 41.9234C45.7418 42.2289 45.8124 42.5628 45.8124 42.9284V44.2832C45.8124 44.6359 45.7423 44.9641 45.603 45.2706ZM51.0852 54.5783L51.0838 54.5808C50.6352 55.417 50.4123 56.3377 50.4123 57.3381V58.6929C50.4123 59.6933 50.6352 60.614 51.0838 61.4502L51.0838 61.4502L51.0852 61.4527C51.5492 62.2943 52.2319 62.9659 53.125 63.4677C54.0273 63.9748 55.1301 64.2211 56.421 64.2211C57.7112 64.2211 58.8033 63.975 59.6833 63.4666C60.5646 62.9642 61.2298 62.2917 61.6697 61.449C62.1178 60.6131 62.3405 59.6928 62.3405 58.6929V57.3381C62.3405 56.3382 62.1178 55.4179 61.6697 54.582C61.2297 53.7391 60.5643 53.0664 59.6826 52.564C58.7911 52.0559 57.6875 51.8098 56.3853 51.8098C55.1058 51.8098 54.0092 52.0564 53.1071 52.5633L53.1058 52.564C52.2247 53.0661 51.5487 53.7376 51.0852 54.5783ZM57.542 60.4244L57.542 60.4244L57.5381 60.4273C57.3143 60.5929 56.9547 60.6949 56.421 60.6949C56.063 60.6949 55.7488 60.6022 55.4708 60.4194C55.1853 60.2315 54.9646 59.9878 54.806 59.6852C54.6472 59.3823 54.5672 59.0529 54.5672 58.6929V57.3381C54.5672 56.9711 54.6324 56.636 54.7602 56.3298C54.8958 56.0328 55.0971 55.7939 55.3675 55.6092C55.626 55.4326 55.96 55.3361 56.3853 55.3361C56.8106 55.3361 57.1447 55.4326 57.4032 55.6092C57.673 55.7935 57.8674 56.0313 57.9911 56.3263L57.991 56.3264L57.9941 56.3331C58.1329 56.6386 58.2035 56.9725 58.2035 57.3381V58.6929C58.2035 59.0692 58.153 59.4131 58.0545 59.7263C57.9643 60.0132 57.7958 60.2441 57.542 60.4244ZM45.0656 61.2802L58.1159 42.1884C58.7043 41.3276 58.4028 40.1457 57.4738 39.6719C56.6995 39.277 55.7525 39.5182 55.2613 40.2353L42.1939 59.3153C41.6693 60.0814 41.8386 61.1244 42.5787 61.6851C43.3711 62.2855 44.5046 62.1009 45.0656 61.2802Z" fill="#120F24" stroke="#120F24" stroke-width="0.5"/>
</svg>
