<svg width="100" height="100" viewBox="0 0 100 100" fill="none" xmlns="http://www.w3.org/2000/svg">
<circle cx="50" cy="50" r="50" fill="white"/>
<path fill-rule="evenodd" clip-rule="evenodd" d="M51.1667 66.7034C46.6707 63.7868 38.0205 58.704 35.7975 59.4353C32.9141 60.3838 32.9141 61.8095 32.9141 63.7065V76.037C32.9141 77.4597 34.8363 79.2619 36.7586 78.8825C37.8889 78.6594 41.2897 77.1684 44.812 75.6242C47.0206 74.6559 49.2769 73.6667 51.0512 72.956C51.2253 73.1029 51.4503 73.1915 51.696 73.1915H56.424C56.7389 73.1915 57.0197 73.046 57.203 72.8185C58.8572 73.4673 61.051 74.3937 63.2656 75.3288C67.1603 76.9734 71.1194 78.6452 72.3216 78.8825C74.2439 79.2619 75.6856 77.934 75.6856 76.037V63.7065C75.6856 61.8095 75.6856 60.3838 72.8022 59.4353C70.5339 58.6891 61.5739 63.9963 57.1635 66.8789C56.9806 66.6781 56.717 66.5521 56.424 66.5521H51.696C51.5016 66.5521 51.3202 66.6075 51.1667 66.7034Z" fill="#120F24"/>
<path fill-rule="evenodd" clip-rule="evenodd" d="M41.3346 34.2104C46.4893 34.2104 50.668 30.0867 50.668 24.9999C50.668 19.9131 46.4893 15.7894 41.3346 15.7894C36.18 15.7894 32.0013 19.9131 32.0013 24.9999C32.0013 30.0867 36.18 34.2104 41.3346 34.2104ZM41.3346 35.5262C47.2257 35.5262 52.0013 30.8134 52.0013 24.9999C52.0013 19.1864 47.2257 14.4736 41.3346 14.4736C35.4436 14.4736 30.668 19.1864 30.668 24.9999C30.668 30.8134 35.4436 35.5262 41.3346 35.5262Z" fill="#120F24" stroke="#120F24"/>
<path fill-rule="evenodd" clip-rule="evenodd" d="M26 23.0262H30.6667C31.0349 23.0262 31.3333 23.3207 31.3333 23.6841C31.3333 24.0474 31.0349 24.342 30.6667 24.342H27.3333V59.2104C27.3333 59.5737 27.0349 59.8683 26.6667 59.8683C26.2985 59.8683 26 59.5737 26 59.2104V23.0262Z" fill="#120F24" stroke="#120F24" stroke-linecap="round"/>
</svg>
