<svg width="37" height="37" viewBox="0 0 37 37" fill="none" xmlns="http://www.w3.org/2000/svg">
<path d="M24.4178 24.5738C18.4739 25.886 12.5698 22.1146 11.2556 16.1693C10.9245 14.6617 11.8808 13.1653 13.3843 12.8334C13.5389 12.7993 13.6947 12.7786 13.8469 12.7723C14.1809 12.7549 14.5109 12.7964 14.8287 12.8986C14.8748 12.9141 14.9111 12.947 14.9276 12.9911L16.4299 16.8125C16.4481 16.8563 16.4439 16.9067 16.4205 16.9477C16.1587 17.4083 15.7772 17.7827 15.3147 18.0299L15.0919 18.1491L15.232 18.3588C16.498 20.2438 18.5119 21.5283 20.7564 21.8863L21.0059 21.9268L21.0202 21.6744C21.0496 21.1507 21.2285 20.647 21.536 20.2155C21.5579 20.1834 21.5924 20.1621 21.6299 20.1538C21.638 20.152 21.6461 20.1502 21.6563 20.1497L25.7538 19.904C25.8028 19.9017 25.8476 19.9191 25.881 19.9544C26.1058 20.2001 26.2828 20.4837 26.4092 20.7937C26.4669 20.9312 26.5117 21.0801 26.5465 21.2379C26.8789 22.7435 25.9242 24.2396 24.4178 24.5738Z" fill="#3EEF2E"/>
<path d="M33.1666 14.148C32.0462 10.5957 29.6446 7.60104 26.4044 5.71665C23.1448 3.82121 19.3269 3.22338 15.6512 4.03482C7.58379 5.81575 2.46937 13.8306 4.25082 21.9003C4.84871 24.6087 6.17799 27.0822 8.09932 29.0682L6.48736 36.7469L16.3463 33.4422C18.2608 33.774 20.1994 33.7284 22.1113 33.3063C22.6141 33.1953 23.1242 33.0554 23.6298 32.8875C24.0746 32.7381 24.5193 32.5648 24.9515 32.3738C31.4059 29.5168 35.0137 22.4303 33.5289 15.5189L33.5117 15.4408C33.4147 15.0013 33.2981 14.5662 33.1653 14.15L33.1666 14.148ZM16.0586 30.2915L10.6041 32.1203L11.456 28.0558L11.0236 27.6819C10.992 27.6547 10.9604 27.6276 10.9245 27.5962C9.03472 25.9156 7.74823 23.7211 7.2028 21.2504C5.78065 14.8083 9.86308 8.41068 16.3033 6.98895C22.3367 5.65703 28.4903 9.23675 30.3103 15.1387C30.4075 15.4552 30.4936 15.7759 30.564 16.0949C30.5841 16.1861 30.6023 16.2759 30.6219 16.3723C31.6879 21.7887 28.9347 27.1964 23.9265 29.5241C23.5444 29.7024 23.1478 29.8616 22.7474 29.9961C22.3319 30.139 21.8996 30.2601 21.4652 30.356C19.9177 30.6976 18.3482 30.73 16.7969 30.4511C16.625 30.4225 16.4553 30.3883 16.2951 30.3502L16.0609 30.2944L16.0586 30.2915Z" fill="#3EEF2E"/>
</svg>
